<svg xmlns="http://www.w3.org/2000/svg" viewBox="0 0 32 32" fill="none">
  <!-- Flask body -->
  <path d="M12 4 L12 13 L5 25 C4.2 26.4 5.2 28 6.8 28 L25.2 28 C26.8 28 27.8 26.4 27 25 L20 13 L20 4 Z" fill="#CEFF00" stroke="#CEFF00" stroke-width="0.5"/>
  <!-- Liquid inside flask -->
  <path d="M8.5 22 C9 20.5 11 19 16 19 C21 19 23 20.5 23.5 22 L25.2 28 L6.8 28 Z" fill="#1a1a2e"/>
  <!-- Bubbles in liquid -->
  <circle cx="13" cy="24" r="1.2" fill="#CEFF00" opacity="0.7"/>
  <circle cx="18" cy="25.5" r="0.8" fill="#CEFF00" opacity="0.5"/>
  <circle cx="20.5" cy="23" r="0.6" fill="#CEFF00" opacity="0.6"/>
  <!-- Neck highlight -->
  <rect x="12" y="4" width="8" height="9" rx="0.5" fill="#1a1a2e" opacity="0.15"/>
  <!-- Cork/opening line -->
  <line x1="11" y1="4" x2="21" y2="4" stroke="#1a1a2e" stroke-width="2" stroke-linecap="round"/>
</svg>
